<svg viewBox="0 0 580 182" fill="none" xmlns="http://www.w3.org/2000/svg">
<path d="M515.826 181.195C504.026 181.195 493.245 178.316 483.484 172.555C473.723 166.795 465.956 159.087 460.183 149.433C454.41 139.69 451.524 128.891 451.524 117.033C451.524 105.262 454.41 94.5466 460.183 84.8903C465.956 75.1504 473.723 67.4002 483.484 61.6399C493.245 55.8795 504.026 53.0007 515.826 53.0007C527.624 53.0007 538.363 55.8795 548.04 61.6399C557.802 67.4002 565.569 75.1504 571.342 84.8903C577.115 94.5466 580 105.262 580 117.033C580 128.891 577.115 139.69 571.342 149.433C565.569 159.087 557.802 166.795 548.04 172.555C538.363 178.316 527.624 181.195 515.826 181.195ZM515.826 150.704C522.021 150.704 527.669 149.221 532.76 146.256C537.854 143.207 541.885 139.141 544.856 134.058C547.912 128.978 549.44 123.301 549.44 117.033C549.44 110.852 547.912 105.217 544.856 100.137C541.885 95.0539 537.854 91.0325 532.76 88.0673C527.669 85.0185 522.021 83.4941 515.826 83.4941C509.629 83.4941 503.942 85.0185 498.764 88.0673C493.67 91.0325 489.595 95.0539 486.54 100.137C483.568 105.217 482.085 110.852 482.085 117.033C482.085 123.301 483.568 128.978 486.54 134.058C489.595 139.141 493.67 143.207 498.764 146.256C503.942 149.221 509.629 150.704 515.826 150.704Z" fill="#102B3A"/>
<path d="M446.545 173.643C446.545 176.14 446.545 177.388 446.059 178.341C445.631 179.18 444.947 179.863 444.106 180.289C443.151 180.777 441.897 180.777 439.395 180.777H424.553C422.05 180.777 420.796 180.777 419.841 180.289C419.001 179.863 418.316 179.18 417.889 178.341C417.403 177.388 417.403 176.14 417.403 173.643V52.1595C417.403 49.6625 417.403 48.414 417.889 47.4609C418.316 46.6193 419.001 45.9393 419.841 45.5101C420.796 45.0252 422.05 45.0252 424.553 45.0252H439.395C441.897 45.0252 443.151 45.0252 444.106 45.5101C444.947 45.9393 445.631 46.6193 446.059 47.4609C446.545 48.414 446.545 49.6625 446.545 52.1595V173.643ZM431.974 38.1055C427.36 38.1055 423.394 36.4306 420.073 33.0753C416.836 29.72 415.216 25.6122 415.216 20.7492C415.216 15.967 416.836 11.9011 420.073 8.54573C423.394 5.10958 427.36 3.39011 431.974 3.39011C436.588 3.39011 440.515 5.10958 443.752 8.54573C447.072 11.9011 448.731 15.967 448.731 20.7492C448.731 25.6122 447.072 29.72 443.752 33.0753C440.515 36.4306 436.588 38.1055 431.974 38.1055Z" fill="#102B3A"/>
<path fill-rule="evenodd" clip-rule="evenodd" d="M285.934 119.506C285.934 119.397 285.934 119.288 285.934 119.179C285.987 107.843 288.799 97.5147 294.368 88.1984C300.072 78.7956 307.638 71.2879 317.064 65.6753C318.036 65.0928 319.016 64.541 320.011 64.0199C328.769 59.5331 338.36 57.2897 348.775 57.2897C353.395 57.2897 357.866 57.7468 362.195 58.6581C366.966 59.6641 371.563 61.2247 375.981 63.3399C378.243 64.4073 380.835 62.7575 380.835 60.2605V9.97231C380.835 7.47532 380.835 6.22681 381.321 5.27372C381.751 4.43489 382.433 3.75212 383.274 3.32574C384.232 2.83805 385.483 2.83804 387.985 2.83804H404.467C406.969 2.83804 408.22 2.83805 409.178 3.32574C410.019 3.75212 410.7 4.43489 411.13 5.27372C411.616 6.22681 411.616 7.47532 411.616 9.97231V119.179C411.616 120.032 411.6 120.879 411.569 121.721L411.611 173.191C411.614 175.668 411.614 176.908 411.133 177.853C410.706 178.684 410.03 179.361 409.195 179.787C408.248 180.269 407.008 180.269 404.525 180.269H385.636C383.804 180.269 382.587 178.38 383.343 176.716C384.349 174.512 381.969 172.349 379.872 173.578C379.076 174.046 378.232 174.542 377.336 175.072C369.401 179.69 359.768 182 348.443 182C337.031 182 326.571 179.194 317.064 173.587C307.638 167.977 300.072 160.469 294.368 151.063C288.746 141.577 285.934 131.057 285.934 119.506ZM348.443 152.301C354.559 152.301 360.059 150.815 364.935 147.847C369.895 144.874 373.867 140.958 376.841 136.09C379.816 131.14 381.307 125.611 381.307 119.506C381.307 113.567 379.816 108.121 376.841 103.172C373.867 98.1389 369.895 94.1371 364.935 91.1691C360.059 88.1983 354.559 86.713 348.443 86.713C342.488 86.713 336.989 88.1983 331.948 91.1691C326.987 94.1371 323.016 98.1389 320.041 103.172C317.145 108.121 315.698 113.567 315.698 119.506C315.698 125.611 317.145 131.14 320.041 136.09C323.016 140.958 326.987 144.874 331.948 147.847C336.989 150.815 342.488 152.301 348.443 152.301Z" fill="#102B3A"/>
<path fill-rule="evenodd" clip-rule="evenodd" d="M288.694 77.5024C289.417 78.4444 289.778 78.9153 290 79.4847C290.33 80.331 290.381 81.2754 290.146 82.1524C289.987 82.7425 289.615 83.3563 288.87 84.5837C282.74 94.8392 279.642 106.212 279.586 118.694C279.584 118.814 279.584 118.934 279.586 119.054C279.586 131.77 282.681 143.352 288.87 153.8C293.323 161.139 298.805 167.428 305.315 172.668C305.407 172.742 305.453 172.779 305.78 173.22C306.364 174.007 306.583 176.927 306.123 177.791C305.865 178.276 307.351 176.661 306.756 177.307C305.511 178.664 303.368 178.664 299.09 178.664H281.592C279.411 178.642 277.612 176.947 277.458 174.776L277.453 174.673L277.45 174.606C277.226 171.58 273.85 169.782 271.208 171.276L271.174 171.293C270.102 171.92 268.934 172.605 267.675 173.352C259.558 178.073 249.713 180.436 238.134 180.436C226.47 180.436 215.779 177.569 206.059 171.834C196.424 166.098 188.69 158.426 182.858 148.812C177.113 139.113 174.239 128.359 174.239 116.554C174.239 104.83 177.113 94.162 182.858 84.5503C188.69 74.9357 196.424 67.2609 206.059 61.5256C215.779 55.7067 226.47 52.7972 238.134 52.7972C247.515 52.7972 256.475 54.7787 265.01 58.7443C273.632 62.7072 280.944 68.2307 286.943 75.3148C287.546 76.0369 288.129 76.7663 288.694 77.5024ZM254.995 145.523C260.067 142.486 264.125 138.481 267.166 133.504C270.208 128.446 271.73 122.794 271.73 116.554C271.73 110.482 270.208 104.916 267.166 99.8555C264.125 94.711 260.067 90.62 254.995 87.5851C250.009 84.5503 244.39 83.0315 238.134 83.0315C232.048 83.0315 226.428 84.5503 221.273 87.5851C216.201 90.62 212.145 94.711 209.101 99.8555C206.143 104.916 204.666 110.482 204.666 116.554C204.666 122.794 206.143 128.446 209.101 133.504C212.145 138.481 216.201 142.486 221.273 145.523C226.428 148.558 232.048 150.077 238.134 150.077C244.39 150.077 250.009 148.558 254.995 145.523Z" fill="#102B3A"/>
<path fill-rule="evenodd" clip-rule="evenodd" d="M98.3994 87.296C96.5137 87.296 94.8406 88.5065 94.2595 90.2968L87.1715 112.059C86.2542 114.869 88.3524 117.749 91.3113 117.749H102.033C103.986 117.749 104.963 117.749 105.81 118.16C106.655 118.571 107.257 119.338 108.462 120.871L151.873 176.151C153.078 177.687 153.68 178.452 154.528 178.865C155.372 179.276 156.349 179.276 158.302 179.276H176.397C183.673 179.276 187.31 179.276 188.429 176.989C189.548 174.699 187.31 171.838 182.837 166.113L149.799 123.855C146.703 119.896 145.156 117.918 145.535 116.077C145.915 114.236 148.36 112.888 153.255 110.196C156.785 108.258 160.023 106.009 162.974 103.446C169.236 98.0215 174.221 91.4885 177.928 83.8444C181.634 76.117 183.488 67.775 183.488 58.813C183.488 49.9368 181.634 41.6753 177.928 34.0312C174.221 26.3038 169.193 19.7279 162.85 14.3034C151.894 4.76704 141.315 0.579927 126.649 0.579927H126.571C123.919 0.596031 122.781 2.94994 122.655 3.33107L115.604 24.7632C114.69 27.5734 116.785 30.456 119.744 30.456H124.422C132.247 30.456 138.961 33.2501 144.564 38.841C150.165 44.346 152.968 51.0051 152.968 58.813C152.968 66.7041 150.165 73.4464 144.564 79.0319C138.961 84.5422 132.247 87.296 124.422 87.296H98.3994Z" fill="#E53935"/>
<path d="M49.7523 61.6704C53.1253 72.034 54.8118 77.2158 57.9392 77.2158C61.0667 77.2158 62.7532 72.034 66.1262 61.6704L84.2657 5.93608C85.1977 3.07251 85.6637 1.64073 86.7951 0.820365C87.9265 0 89.4352 0 92.4526 0H105.969C111.38 0 114.086 0 115.375 1.77037C116.664 3.54074 115.828 6.10838 114.155 11.2437L61.4904 172.933C60.558 175.796 60.0918 177.227 58.9605 178.047C57.8292 178.867 56.3208 178.867 53.3041 178.867H39.9087C34.4981 178.867 31.7928 178.867 30.5038 177.097C29.2148 175.327 30.0505 172.76 31.7218 167.625L41.39 137.923C41.8184 136.607 42.0325 135.949 42.0325 135.268C42.0324 134.588 41.818 133.93 41.3893 132.614L1.84893 11.2442C0.17587 6.1087 -0.660659 3.54096 0.628315 1.77048C1.91729 0 4.62322 0 10.0351 0H23.4259C26.4433 0 27.952 0 29.0834 0.820365C30.2148 1.64073 30.6808 3.07251 31.6128 5.93607L49.7523 61.6704Z" fill="#102B3A"/>
</svg>
