<svg width="152" height="56" viewBox="0 0 152 56" fill="none" xmlns="http://www.w3.org/2000/svg">
<path d="M44.6027 35.0813V20.3138H54.4657V23.0859H47.9239V26.1603H53.7612V28.9323H47.9239V35.0309L44.6027 35.0813ZM63.3223 26.6644C63.0203 26.6139 62.7184 26.5131 62.3158 26.4628C61.9132 26.3619 61.5106 26.3619 61.0577 26.3619C60.8565 26.3619 60.6049 26.3619 60.3533 26.4123C60.1017 26.4628 59.8501 26.4628 59.7494 26.5132V35.0813H56.5792V24.4467C57.1327 24.2451 57.8372 24.0435 58.5921 23.8923C59.3469 23.6907 60.2023 23.6403 61.1584 23.6403C61.3093 23.6403 61.5106 23.6403 61.7622 23.6907C62.0138 23.6907 62.2654 23.741 62.4668 23.7915C62.7184 23.8419 62.97 23.8923 63.1712 23.9427C63.4228 23.9931 63.6241 24.0435 63.7751 24.1443L63.3223 26.6644ZM65.0331 29.5372C65.0331 28.5292 65.1841 27.6723 65.486 26.9163C65.7879 26.1603 66.1906 25.5556 66.6938 25.0515C67.197 24.5475 67.7505 24.1947 68.4046 23.9427C69.0589 23.6907 69.713 23.5394 70.4176 23.5394C72.0278 23.5394 73.2859 24.0435 74.1916 25.0011C75.0974 25.9588 75.5503 27.4204 75.5503 29.2852C75.5503 29.4867 75.5503 29.6884 75.5503 29.89C75.5503 30.0916 75.4999 30.2932 75.4999 30.4948H68.3041C68.3543 31.1501 68.6562 31.6541 69.2098 32.0573C69.7633 32.4604 70.4678 32.6117 71.3736 32.6117C71.9775 32.6117 72.5311 32.5613 73.0845 32.4604C73.638 32.3596 74.091 32.2085 74.4432 32.0573L74.8458 34.6277C74.6948 34.7285 74.4432 34.7789 74.1412 34.8798C73.8393 34.9805 73.5375 35.0309 73.1852 35.0813C72.8329 35.1317 72.4807 35.1821 72.0781 35.2324C71.6756 35.2829 71.2729 35.2829 70.8704 35.2829C69.864 35.2829 69.0085 35.1317 68.2537 34.8293C67.4989 34.5269 66.895 34.1236 66.3918 33.6196C65.8886 33.1157 65.5363 32.5108 65.2847 31.7548C65.1338 31.1501 65.0331 30.3941 65.0331 29.5372ZM72.4807 28.3276C72.4807 28.0756 72.4304 27.7732 72.3297 27.5212C72.2291 27.2691 72.1284 27.0172 71.9775 26.8156C71.8265 26.6139 71.6252 26.4628 71.3736 26.3116C71.122 26.1603 70.8201 26.11 70.4678 26.11C70.1156 26.11 69.8137 26.1603 69.5621 26.3116C69.3105 26.4123 69.1091 26.6139 68.9078 26.8156C68.7569 27.0172 68.6059 27.2691 68.5053 27.5212C68.4046 27.7732 68.3543 28.0251 68.3041 28.3276H72.4807ZM77.4625 29.5372C77.4625 28.5292 77.6134 27.6723 77.9154 26.9163C78.2173 26.1603 78.6198 25.5556 79.123 25.0515C79.6264 24.5475 80.1798 24.1947 80.834 23.9427C81.4881 23.6907 82.1424 23.5394 82.8468 23.5394C84.4571 23.5394 85.7151 24.0435 86.621 25.0011C87.5267 25.9588 87.9796 27.4204 87.9796 29.2852C87.9796 29.4867 87.9796 29.6884 87.9796 29.89C87.9796 30.0916 87.9293 30.2932 87.9293 30.4948H80.7333C80.7837 31.1501 81.0856 31.6541 81.6392 32.0573C82.1927 32.4604 82.8972 32.6117 83.803 32.6117C84.4068 32.6117 84.9603 32.5613 85.5139 32.4604C86.0674 32.3596 86.5203 32.2085 86.8726 32.0573L87.2751 34.6277C87.1242 34.7285 86.8726 34.7789 86.5706 34.8798C86.2687 34.9805 85.9667 35.0309 85.6145 35.0813C85.2623 35.1317 84.91 35.1821 84.5075 35.2324C84.1048 35.2829 83.7023 35.2829 83.2998 35.2829C82.2933 35.2829 81.4379 35.1317 80.683 34.8293C79.9282 34.5269 79.3244 34.1236 78.8212 33.6196C78.3179 33.1157 77.9657 32.5108 77.7141 31.7548C77.5631 31.1501 77.4625 30.3941 77.4625 29.5372ZM84.91 28.3276C84.91 28.0756 84.8596 27.7732 84.7591 27.5212C84.6584 27.2691 84.5578 27.0172 84.4068 26.8156C84.2559 26.6139 84.0546 26.4628 83.803 26.3116C83.5514 26.1603 83.2495 26.11 82.8972 26.11C82.5449 26.11 82.2431 26.1603 81.9913 26.3116C81.7397 26.4123 81.5385 26.6139 81.3372 26.8156C81.1863 27.0172 81.0353 27.2691 80.9347 27.5212C80.834 27.7732 80.7837 28.0251 80.7333 28.3276H84.91ZM96.5342 29.1339C96.5342 28.126 96.3833 27.37 96.1317 26.9667C95.8801 26.5635 95.4271 26.3116 94.773 26.3116C94.5717 26.3116 94.3704 26.3116 94.1691 26.3619C93.9679 26.3619 93.7666 26.4123 93.5652 26.4123V35.0813H90.3951V24.2451C90.6467 24.1947 90.9989 24.0938 91.3512 24.0435C91.7034 23.9427 92.106 23.8923 92.5085 23.8419C92.9111 23.7915 93.3136 23.741 93.7666 23.6907C94.1691 23.6403 94.6221 23.6403 95.0246 23.6403C95.8297 23.6403 96.4839 23.741 96.9871 23.9427C97.4904 24.1443 97.8929 24.3963 98.2452 24.6987C98.6981 24.3963 99.2013 24.0938 99.8051 23.9427C100.409 23.741 100.912 23.6907 101.415 23.6907C102.321 23.6907 103.026 23.7915 103.63 24.0435C104.183 24.2956 104.686 24.6482 104.988 25.1019C105.34 25.5556 105.542 26.11 105.693 26.7147C105.844 27.3195 105.894 28.0251 105.894 28.7812V35.1317H102.724V29.1339C102.724 28.126 102.573 27.37 102.321 26.9667C102.07 26.5635 101.617 26.3116 100.963 26.3116C100.811 26.3116 100.56 26.3619 100.258 26.4628C99.9561 26.5635 99.7045 26.6644 99.5032 26.7651C99.6039 27.0676 99.6541 27.4204 99.7045 27.7732C99.7548 28.126 99.7548 28.5292 99.7548 28.9323V35.0309H96.5846V29.1339H96.5342ZM112.989 32.8636C113.291 32.8636 113.593 32.8636 113.895 32.8636C114.197 32.8636 114.398 32.8133 114.6 32.8133V30.3941C114.449 30.3436 114.298 30.3436 114.046 30.2932C113.794 30.2428 113.543 30.2428 113.342 30.2428C113.04 30.2428 112.788 30.2428 112.486 30.2932C112.234 30.3436 111.983 30.3941 111.782 30.4948C111.58 30.5957 111.429 30.7468 111.329 30.898C111.228 31.0492 111.178 31.3013 111.178 31.5532C111.178 32.0573 111.329 32.4101 111.681 32.5613C111.983 32.7629 112.436 32.8636 112.989 32.8636ZM112.738 23.5394C113.694 23.5394 114.449 23.6403 115.103 23.8419C115.707 24.0435 116.21 24.3459 116.612 24.7491C116.965 25.1523 117.267 25.6059 117.418 26.2107C117.569 26.7651 117.669 27.4204 117.669 28.126V34.7285C117.216 34.8293 116.562 34.9301 115.757 35.0813C114.952 35.2324 113.945 35.2829 112.838 35.2829C112.134 35.2829 111.48 35.2324 110.876 35.0813C110.272 34.9301 109.769 34.7285 109.366 34.4765C108.964 34.1741 108.611 33.8213 108.41 33.3173C108.158 32.8636 108.058 32.2589 108.058 31.6036C108.058 30.9485 108.209 30.3941 108.46 29.9404C108.712 29.4867 109.064 29.1339 109.517 28.8316C109.97 28.5795 110.473 28.3779 111.027 28.2267C111.58 28.126 112.184 28.0251 112.788 28.0251C113.191 28.0251 113.543 28.0251 113.895 28.0756C114.197 28.126 114.449 28.1764 114.65 28.2267V27.9244C114.65 27.37 114.499 26.9667 114.147 26.6139C113.845 26.3116 113.241 26.11 112.436 26.11C111.882 26.11 111.379 26.1603 110.825 26.2107C110.322 26.3116 109.869 26.4123 109.467 26.5635L109.064 23.9931C109.265 23.9427 109.467 23.8923 109.769 23.7915C110.02 23.741 110.322 23.6907 110.675 23.6403C110.976 23.5899 111.329 23.5394 111.681 23.4891C112.033 23.4387 112.385 23.5394 112.738 23.5394ZM120.387 21.0699L123.557 20.5659V23.8923H127.381V26.5132H123.557V30.4444C123.557 31.0996 123.657 31.6541 123.909 32.0573C124.16 32.4604 124.613 32.662 125.318 32.662C125.671 32.662 126.022 32.6117 126.374 32.5613C126.727 32.5108 127.079 32.4101 127.381 32.3092L127.834 34.7789C127.432 34.9301 127.029 35.0813 126.576 35.1821C126.124 35.2829 125.519 35.3333 124.865 35.3333C124.01 35.3333 123.305 35.2324 122.702 34.9805C122.148 34.7285 121.695 34.4261 121.342 34.0229C120.99 33.6196 120.789 33.1157 120.639 32.5108C120.487 31.906 120.437 31.2508 120.437 30.5452V21.0699H120.387ZM133.118 35.0813H129.948V23.8419H133.118V35.0813ZM138.804 29.5372C138.804 31.5532 139.559 32.5613 141.068 32.5613C141.37 32.5613 141.723 32.5108 142.024 32.4101C142.327 32.3092 142.578 32.2085 142.779 32.1076V26.4123C142.629 26.3619 142.428 26.3619 142.176 26.3619C141.924 26.3619 141.673 26.3116 141.37 26.3116C140.515 26.3116 139.861 26.6139 139.408 27.2188C139.005 27.7732 138.804 28.5795 138.804 29.5372ZM135.583 29.4364C135.583 28.5795 135.735 27.7732 135.986 27.0676C136.237 26.3619 136.64 25.7572 137.144 25.2028C137.646 24.6987 138.251 24.2956 138.955 23.9931C139.66 23.6907 140.515 23.5899 141.421 23.5899C141.823 23.5899 142.225 23.5899 142.629 23.6403C143.031 23.6907 143.433 23.741 143.886 23.7915C144.29 23.8419 144.692 23.8923 145.044 23.9931C145.397 24.0938 145.748 24.1443 146 24.2451V39.0126H142.83V34.7789C142.477 34.9301 142.125 35.0309 141.723 35.1317C141.32 35.2324 140.917 35.2829 140.465 35.2829C138.854 35.2829 137.646 34.7789 136.842 33.7205C135.986 32.662 135.583 31.2508 135.583 29.4364Z" fill="#373435"/>
<path d="M7.16394 23.9931L10.7368 28.126L16.4231 26.7651L11.8438 20.213L7.16394 23.9931Z" fill="#B13231"/>
<path d="M6.05676 36.9966L9.6799 41.1295L15.3662 39.819L10.787 33.2166L6.05676 36.9966Z" fill="#B13231"/>
<path d="M7.66716 17.5418L7.16394 23.9931L32.4756 17.8442C34.8909 17.2394 37.0044 14.8706 37.2058 12.5017L37.7592 6L12.3974 12.1489C9.98193 12.7537 7.86844 15.173 7.66716 17.5418Z" fill="#ED3237"/>
<path d="M6.61029 30.5453L6.05676 36.9966L31.3684 30.7972C33.7837 30.1925 35.8972 27.8237 36.0986 25.4548L36.7024 19.0035L11.3405 25.2028C8.92507 25.7572 6.81159 28.1765 6.61029 30.5453Z" fill="#ED3237"/>
<path d="M5.55353 43.5487L5 50L17.0267 47.1271C19.4422 46.5727 21.5557 44.1534 21.7569 41.7846L22.3105 35.3333L10.2837 38.2061C7.86831 38.811 5.7045 41.1798 5.55353 43.5487Z" fill="#ED3237"/>
<path d="M130.602 20.5659L129.897 22.7836L134.326 22.7331C135.231 22.7331 136.137 22.0276 136.389 21.2211L137.093 19.0035L132.665 19.0539C131.81 19.1042 130.853 19.7595 130.602 20.5659Z" fill="#ED3237"/>
</svg>
